<?xml version="1.0" encoding="utf-8"?>
<!-- Generator: Adobe Illustrator 19.2.1, SVG Export Plug-In . SVG Version: 6.00 Build 0)  -->
<svg version="1.1" id="Ebene_6" xmlns="http://www.w3.org/2000/svg" xmlns:xlink="http://www.w3.org/1999/xlink" x="0px" y="0px"
	 viewBox="0 0 395 435" style="enable-background:new 0 0 395 435;" xml:space="preserve">
<style type="text/css">
	.st0{fill:none;stroke:#000000;stroke-miterlimit:10;}
	.st1{fill:none;stroke:#000000;stroke-width:0.5;stroke-miterlimit:10;}
	.st2{fill:none;stroke:#000000;stroke-width:0.5;stroke-miterlimit:10;stroke-dasharray:0.5011,0.5011;}
	.st3{fill:none;stroke:#000000;stroke-width:0.5;stroke-miterlimit:10;stroke-dasharray:0.5;}
	.st4{fill:none;stroke:#000000;stroke-width:0.25;stroke-miterlimit:10;stroke-dasharray:0.5;}
	.st5{fill:none;stroke:#000000;stroke-width:0.25;stroke-miterlimit:10;}
</style>
<g>
	<path class="st0" d="M237.1,130.6"/>
	<path class="st0" d="M154.2,120l-57.6,18.8c0,0-6.9,3.3-9.8,10.6C84,156.7,14.2,322.4,7.2,354.7c0,0-2.7,5.3,0,11.1l-4.4,21.7
		c0,0,7,7,33.1,12.6c0,0,10.1-15,11-16.5c0.9-1.5,4.6-3.4,6.7-7.3c2.1-4,49-101.6,48.7-105c0,0-2.2,115.3-2.2,118.3
		c0,3-1.2,6.3,5,12.1c0,0,0.3,19.7,0.6,21.2c0.3,1.5,56.7,9.6,91.7,9.6h0.1c35,0,91.4-8.1,91.7-9.6c0.3-1.5,0.6-21.2,0.6-21.2
		c6.1-5.8,4.9-9.1,5-12.1c0-3-2.2-118.3-2.2-118.3c-0.3,3.4,46.5,101,48.7,105c2.1,4,5.8,5.8,6.7,7.3c0.9,1.5,11,16.5,11,16.5
		c26-5.5,33.1-12.6,33.1-12.6l-4.4-21.7c2.7-5.8,0-11.1,0-11.1c-6.9-32.2-76.7-198-79.6-205.3c-2.9-7.3-9.8-10.6-9.8-10.6L240.8,120
		"/>
	<path class="st0" d="M240.8,120c0,0-41.3,14.1-86.6,0"/>
	<path class="st1" d="M105.1,401.6c0,0,79.3,20.2,184.8,0"/>
	<g>
		<g>
			<path class="st1" d="M103.3,399.2c0,0,0.1,0,0.2,0.1"/>
			<path class="st2" d="M104.1,399.4c8.2,1.9,85.7,18.9,187-0.1"/>
			<path class="st1" d="M291.3,399.2c0.1,0,0.2,0,0.2,0"/>
		</g>
	</g>
	<path class="st1" d="M6.8,364.9c0,0,15.2,14.2,42.5,16.4"/>
	<path class="st1" d="M388.6,364.9c0,0-15.2,14.2-42.5,16.4"/>
	<path class="st3" d="M6.5,362.4c0,0,15.8,15.2,44.3,17.6"/>
	<path class="st3" d="M388.4,363.6c0,0-16.2,14.2-45.2,16.4"/>
	<path class="st3" d="M93.4,140.8"/>
	<path class="st0" d="M197.3,148.7c37.7,0,44.8-28.1,44.8-28.1c3-3.1,6-8.1,7.9-12.7c1.9-4.6,2-38.4-6.9-63.9
		c-9-25.5-13.2-41.5-45.7-41.5h0.8c-32.6,0-36.8,16-45.7,41.5c-9,25.5-8.8,59-6.9,63.6c1.9,4.6,4.9,9.8,7.9,12.9
		c0,0,7.1,28.2,44.8,28.2"/>
	<path class="st0" d="M153.2,120.6"/>
	<path class="st0" d="M198,145.6c-14.3-14-22.8-28.6-33.2-46.1c-10.4-17.5-2.1-42.7-2.1-42.7s8-42.4,35.3-43.1"/>
	<path class="st4" d="M193.4,148.6C143.9,96,150.2,82.3,160.8,45.3C171.4,8.4,198,9.9,198,9.9"/>
	<path class="st5" d="M181.6,126.4c0,0,13.7,1.1,16.4,1.1"/>
	<path class="st5" d="M184,129.6c0,0,9.2,1,14,1"/>
	<path class="st4" d="M180.3,132.8c-1.7-1.3-0.7-2.2-0.7-2.2c1.2-1.2,3.8,1.8,5.2,4.2c1.4,2.4-1.4,1.1-1.4,1.1L180.3,132.8"/>
	<path class="st0" d="M242.1,120.6"/>
	<path class="st0" d="M197.3,13.7c27.4,0.7,35.3,43.1,35.3,43.1s8.3,25.2-2.1,42.7c-10.4,17.5-18.9,32.1-33.2,46.1l-2.7,3.1"/>
	<path class="st4" d="M201.9,148.6c49.5-52.6,43.2-66.3,32.6-103.3c-10.6-37-37.2-35.4-37.2-35.4"/>
	<path class="st4" d="M215,132.8c1.7-1.3,0.7-2.2,0.7-2.2c-1.2-1.2-3.8,1.8-5.2,4.2c-1.4,2.4,1.4,1.1,1.4,1.1L215,132.8"/>
	<path class="st1" d="M200.5,14c0,0-5,25-3.3,33.2c1.8,8.2,2.5,42.3,1.4,59c-1,16.6-1.3,19.7,0,24.4"/>
	<path class="st5" d="M213.6,126.4c0,0-13.7,1.1-16.4,1.1"/>
	<path class="st5" d="M211.3,129.6c0,0-9.2,1-14,1"/>
	<path class="st4" d="M184,128.7c0,0,15.9,2.3,27.3,0"/>
	<path class="st4" d="M181,125.4c0,0,16.8,2.5,32.7,0"/>
	<g>
		<g>
			<path d="M183,215.7c0.1,1.9,0.1,3.8,0.2,5.6c0,1.2,0.1,2.3,0.1,3.5c0,0.8,0.3,1.6-0.4,1.1c-0.3-0.2,0.1,0.4-0.1-0.1
				c-0.1-0.4-0.1-0.9-0.1-1.3c-0.1-1.3-0.2-2.6-0.3-3.9c-0.1-1-0.3-2.3-0.2-3.3c0.1-0.8,0.4-0.8,1.2-1.4c0.2-0.2-0.1-0.5-0.3-0.3
				c-0.5,0.4-1.2,0.7-1.3,1.3c-0.2,0.7,0.1,2.1,0.2,2.8c0.1,2.2,0.3,4.4,0.4,6.5c0,0.1,0.1,0.2,0.2,0.2c0.3,0,0.6,0,1,0
				c0.1,0,0.2-0.1,0.2-0.2c-0.1-3.5-0.2-7-0.3-10.4C183.5,215.4,183,215.4,183,215.7z"/>
		</g>
	</g>
	<path class="st5" d="M180.8,132.5c-2-1.3-2.8,23.6-3.3,35.8c-0.2,4,1,6.8,0.5,11.1c-0.4,3.2-0.5,5.3-0.2,8.3
		c0.6,7.9,2,15.5,2.5,23.4c0.1,0.9,1.6,9.2,3,4.2c0.7-2.4-0.9-7.8-1.3-10.1c-1.6-9.8-1.6-17.8-1.4-27.7c0.1-7.3-1.2-14.4-1.2-21.7
		c-0.1-5.4,0.4-10.2,1.8-15.2C182.1,137.7,182.8,133.8,180.8,132.5z"/>
	<g>
		<g>
			<path d="M212.3,208.2c-0.1,3.2-0.2,6.3-0.3,9.5c0,0.1,0.1,0.2,0.2,0.2c0.3,0,0.6,0,1,0c0.1,0,0.2-0.1,0.2-0.2
				c0.2-2.1,0.3-4.2,0.5-6.3c0-0.5,0.4-1.8,0.2-2.3c-0.2-0.5-1-0.8-1.4-1.1c-0.2-0.2-0.5,0.2-0.2,0.4c0.7,0.5,1.1,0.6,1.1,1
				c0.1,0.8-0.1,2-0.2,2.8c-0.1,1.2-0.2,2.4-0.3,3.6c0,0.4,0,0.9-0.1,1.3c-0.1,0.3-0.2,0.5,0,0.3c0,0-0.6,0-0.7,0
				c0,0,0.2,0.3,0.1,0.1c-0.1-0.2,0-0.7,0-0.9c0-1,0.1-2.1,0.1-3.1c0.1-1.8,0.1-3.5,0.2-5.3C212.8,207.9,212.3,207.9,212.3,208.2z"
				/>
		</g>
	</g>
	<path class="st5" d="M215,132.5c2-1.1,2.8,21.5,3.3,32.6c0.2,3.6-1,6.2-0.5,10.1c0.4,2.9,0.5,4.8,0.2,7.6c-0.6,7.2-2,14.1-2.5,21.3
		c-0.1,0.9-1.6,8.4-3,3.9c-0.7-2.2,0.9-7.1,1.3-9.2c1.6-9,1.6-16.2,1.4-25.2c-0.1-6.6,1.2-13.1,1.2-19.8c0.1-4.9-0.4-9.3-1.8-13.8
		C213.6,137.2,213,133.7,215,132.5z"/>
	<path class="st1" d="M102.4,271.2c0,0,2.4-105.2-8.9-130.4"/>
	<path class="st1" d="M292.7,271.2c0,0-5.5-88.2,8.9-130.4"/>
</g>
</svg>
