<svg id="Layer_1" data-name="Layer 1" xmlns="http://www.w3.org/2000/svg" width="644.16" height="733.61" viewBox="0 0 644.16 733.61">
  <title>fl</title>
  <path d="M90.7,252.89,172,299.81l-59.8,16a25.54,25.54,0,1,0,13.22,49.34l104.9-28.1a27.49,27.49,0,0,0,3.64-1.49l114.83,66.28,0,0h.65l.69.41L238.12,467a25.26,25.26,0,0,0-6.78-3.36l-104.9-28.12a25.56,25.56,0,0,0-13.23,49.37l64.13,17.18-84,48.52a25.55,25.55,0,1,0,25.57,44.25l81.24-46.91-16,59.76a25.55,25.55,0,1,0,49.35,13.24L261.58,516a19.53,19.53,0,0,0,.22-3.7l114.67-66.2V574a24.62,24.62,0,0,0-6.26,4.18L293.38,655a25.55,25.55,0,0,0,30.85,40.2,25.32,25.32,0,0,0,5.3-4.07l46.94-47,0,97.07a25.55,25.55,0,1,0,51.09,0V647.41l43.76,43.77a25.59,25.59,0,0,0,30.84,4.08,26.51,26.51,0,0,0,5.31-4.09,25.56,25.56,0,0,0,0-36.13l-76.79-76.81a24.15,24.15,0,0,0-3.12-2.07V447l111.84,64.6a26.61,26.61,0,0,0,.25,3.73l28.12,104.9a25.55,25.55,0,0,0,31.28,18.07,25.13,25.13,0,0,0,6.2-2.55A25.59,25.59,0,0,0,617.16,607l-16-59.78,81.29,46.94A25.55,25.55,0,0,0,708,549.89l-84.05-48.53L688,484.18a25.28,25.28,0,0,0,6.2-2.55,25.55,25.55,0,0,0-19.4-46.8l-104.92,28.1a24.54,24.54,0,0,0-6.76,3.35l-110.79-64,.74-.42h-.64l0,0,113.87-65.75a27.76,27.76,0,0,0,3.31,1.65l104.91,28.1a25.56,25.56,0,0,0,13.22-49.37l-59.75-16,81.26-46.93a25.55,25.55,0,0,0-25.57-44.24l-84,48.5,17.17-64.12a25.55,25.55,0,1,0-49.35-13.24l-28.1,104.9a24.58,24.58,0,0,0-.46,7.52L426.92,357.58V224.13a24.26,24.26,0,0,0,3.12-2.37L506.83,145a25.55,25.55,0,1,0-36.13-36.14l-43.78,43.74,0-93.84a25.56,25.56,0,0,0-51.12,0v97l-46.94-46.94A25.55,25.55,0,1,0,292.75,145l76.79,76.79a25.32,25.32,0,0,0,6.27,4.44V358.5L261.27,292.37a25.45,25.45,0,0,0-.74-7.68l-28.1-104.89A25.54,25.54,0,1,0,183.1,193l17.17,64.13-84-48.53A25.55,25.55,0,1,0,90.7,252.89Z" transform="translate(-77.92 -33.2)" fill="#231f20"/>
</svg>
