<?xml version="1.0" encoding="utf-8"?>
<!-- Generator: Adobe Illustrator 19.2.1, SVG Export Plug-In . SVG Version: 6.00 Build 0)  -->
<svg version="1.1" id="Ebene_2" xmlns="http://www.w3.org/2000/svg" xmlns:xlink="http://www.w3.org/1999/xlink" x="0px" y="0px"
	 viewBox="0 0 395 435" style="enable-background:new 0 0 395 435;" xml:space="preserve">
<style type="text/css">
	.st0{fill:none;stroke:#000000;stroke-miterlimit:10;}
	.st1{fill:none;stroke:#000000;stroke-width:0.5;stroke-miterlimit:10;}
	.st2{fill:none;stroke:#000000;stroke-width:0.5;stroke-miterlimit:10;stroke-dasharray:0.5011,0.5011;}
	.st3{fill:none;stroke:#000000;stroke-width:0.5;stroke-miterlimit:10;stroke-dasharray:0.4996,0.4996;}
	.st4{fill:none;stroke:#000000;stroke-width:0.5;stroke-miterlimit:10;stroke-dasharray:0.5;}
</style>
<g>
	<path class="st0" d="M387.8,307.1c2.7-5.8,0-11.1,0-11.1c-6.9-32.2-76.7-198-79.6-205.3c-2.9-7.3-9.8-10.6-9.8-10.6l-57.6-18.8
		c0,0-41.3,14.1-86.6,0L96.6,80c0,0-6.9,3.3-9.8,10.6C84,98,14.2,263.7,7.2,296c0,0-2.7,5.3,0,11.1l-4.4,21.7c0,0,7,7,33.1,12.6
		c0,0,10.1-15,11-16.5c0.9-1.5,4.6-3.4,6.7-7.3c2.1-4,49-101.6,48.7-105c0,0-2.2,115.3-2.2,118.3c0,3-1.2,6.3,5,12.1
		c0,0,0.3,19.7,0.6,21.2c0.3,1.5,56.7,9.6,91.7,9.6h0.1c35,0,91.4-8.1,91.7-9.6c0.3-1.5,0.6-21.2,0.6-21.2c6.1-5.8,4.9-9.1,5-12.1
		c0-3-2.2-118.3-2.2-118.3c-0.3,3.4,46.5,101,48.7,105c2.1,4,5.8,5.8,6.7,7.3c0.9,1.5,11,16.5,11,16.5c26-5.5,33.1-12.6,33.1-12.6
		L387.8,307.1z"/>
	<path class="st0" d="M240.8,61.3c0,0-6.4,30-43.4,29.6c-36.9-0.4-43.3-29.6-43.3-29.6"/>
	<path class="st1" d="M105.1,342.9c0,0,79.3,20.2,184.8,0"/>
	<path class="st1" d="M145.5,64.3c0,0,7.6,35,52.1,35.5c44.5,0.5,52.3-35.5,52.3-35.5"/>
	<g>
		<g>
			<path class="st1" d="M103.3,340.5c0,0,0.1,0,0.2,0.1"/>
			<path class="st2" d="M104.1,340.7c8.2,1.9,85.7,18.9,187-0.1"/>
			<path class="st1" d="M291.3,340.5c0.1,0,0.2,0,0.2,0"/>
		</g>
	</g>
	<g>
		<g>
			<path class="st1" d="M143.5,64.7c0,0,0,0.1,0,0.2"/>
			<path class="st3" d="M143.7,65.5c1.2,5.2,10.3,36.2,53.8,36.2c44.3,0,52.9-32.1,53.9-36.4"/>
			<path class="st1" d="M251.5,65c0-0.2,0-0.2,0-0.2"/>
		</g>
	</g>
	<path class="st1" d="M161.5,75.4c0,0,31,9.6,72.2,0"/>
	<path class="st1" d="M158.2,70.9c0,0,33.7,11.4,78.3,0"/>
	<path class="st4" d="M163.1,76.6c0,0,29.5,9.6,68.7,0"/>
	<path class="st4" d="M159.2,72.1c0,0,32.8,11.4,76.3,0"/>
	<path class="st1" d="M6.8,306.2c0,0,15.2,14.2,42.5,16.4"/>
	<path class="st1" d="M388.6,306.2c0,0-15.2,14.2-42.5,16.4"/>
	<path class="st4" d="M6.5,303.7c0,0,15.8,15.2,44.3,17.6"/>
	<path class="st4" d="M388.4,304.9c0,0-16.2,14.2-45.2,16.4"/>
	<path class="st4" d="M93.4,82.1"/>
	<path class="st1" d="M102.3,212.5c0,0,2.4-105.2-8.9-130.4"/>
	<path class="st1" d="M292.7,212.5c0,0-5.5-88.2,8.9-130.4"/>
</g>
</svg>
