<?xml version="1.0" encoding="utf-8"?>
<!-- Generator: Adobe Illustrator 19.2.1, SVG Export Plug-In . SVG Version: 6.00 Build 0)  -->
<svg version="1.1" id="Ebene_5" xmlns="http://www.w3.org/2000/svg" xmlns:xlink="http://www.w3.org/1999/xlink" x="0px" y="0px"
	 viewBox="0 0 395 435" style="enable-background:new 0 0 395 435;" xml:space="preserve">
<style type="text/css">
	.st0{fill:none;stroke:#000000;stroke-miterlimit:10;}
	.st1{fill:none;stroke:#000000;stroke-width:0.5;stroke-miterlimit:10;}
	.st2{fill:none;stroke:#000000;stroke-width:0.5;stroke-miterlimit:10;stroke-dasharray:1;}
</style>
<g>
	<path class="st0" d="M197.8,370.7c-33.6-0.6-36.9-1.8-48.6-5.7c-11.7-3.9-17.4-7.5-24-9.3c-6.6-1.8-12.3-2.4-12.3-2.4l1.5-177.2
		c-4.5,0.3-36,9.8-36,9.8c-15.9-10.9-31.2-53.9-31.2-53.9c61.1-50.4,68.4-52.2,68.4-52.2L161,64.4c0,0,13.2,5.7,36.9,5.7"/>
	<path class="st1" d="M156.8,65.8c0,0,2.9,29.8,41,30.4"/>
	<path class="st0" d="M161,64.4c0,0,2.7,26.4,36.9,26.4"/>
	<path class="st1" d="M115.7,79.7c0,0,10.8,58.8-1.2,96.3"/>
	<path class="st1" d="M162.3,69.8c0,0,20.9,4.6,35.5,4.6"/>
	<path class="st1" d="M164.5,74.4c0,0,16.3,4.2,33.3,4.4"/>
	<path class="st2" d="M197.8,365.9c-33.6-0.6-36.9-1.8-48.6-5.7c-11.7-3.9-17.4-7.5-24-9.3c-6.6-1.8-12.3-2.4-12.3-2.4"/>
	<path class="st2" d="M197.8,363.5c-33.6-0.6-36.9-1.8-48.6-5.7c-11.7-3.9-17.4-7.5-24-9.3c-6.6-1.8-12.3-2.4-12.3-2.4"/>
	<path class="st2" d="M53,127.2c0,0,12.2,40.5,32.4,56.5"/>
	<path class="st2" d="M54.2,126c0,0,12.2,40.5,32.4,56.5"/>
	<path class="st2" d="M164.5,73.2c0,0,16.3,4.2,33.3,4.4c0,0,15.1,0.3,33.4-4.4"/>
	<path class="st0" d="M197.2,370.7c33.6-0.6,36.9-1.8,48.6-5.7c11.7-3.9,17.4-7.5,24-9.3c6.6-1.8,12.3-2.4,12.3-2.4L280.6,176
		c4.5,0.3,36,9.8,36,9.8c15.9-10.9,31.2-53.9,31.2-53.9c-61.1-50.4-68.4-52.2-68.4-52.2l-45.3-15.3c0,0-13.2,5.7-36.9,5.7"/>
	<path class="st1" d="M238.2,65.8c0,0-2.9,29.8-41,30.4"/>
	<path class="st0" d="M234.1,64.4c0,0-2.7,26.4-36.9,26.4"/>
	<path class="st1" d="M279.4,79.7c0,0-10.8,58.8,1.2,96.3"/>
	<path class="st1" d="M232.7,69.8c0,0-20.9,4.6-35.5,4.6"/>
	<path class="st1" d="M230.5,74.4c0,0-16.3,4.2-33.3,4.4"/>
	<path class="st2" d="M197.2,365.9c33.6-0.6,36.9-1.8,48.6-5.7c11.7-3.9,17.4-7.5,24-9.3c6.6-1.8,12.3-2.4,12.3-2.4"/>
	<path class="st2" d="M197.2,363.5c33.6-0.6,36.9-1.8,48.6-5.7c11.7-3.9,17.4-7.5,24-9.3c6.6-1.8,12.3-2.4,12.3-2.4"/>
	<path class="st2" d="M342,127.2c0,0-12.2,40.5-32.4,56.5"/>
	<path class="st2" d="M340.8,126c0,0-12.2,40.5-32.4,56.5"/>
</g>
</svg>
